<?xml version="1.0" standalone="no"?>
<!DOCTYPE svg PUBLIC "-//W3C//DTD SVG 20010904//EN"
 "http://www.w3.org/TR/2001/REC-SVG-20010904/DTD/svg10.dtd">
<svg version="1.0" xmlns="http://www.w3.org/2000/svg"
 width="370.000000pt" height="199.000000pt" viewBox="0 0 370.000000 199.000000"
 preserveAspectRatio="xMidYMid meet">
<metadata>
Created by potrace 1.16, written by Peter Selinger 2001-2019
</metadata>
<g transform="translate(0.000000,199.000000) scale(0.100000,-0.100000)"
fill="#000000" stroke="none">
<path d="M1525 1797 c-234 -87 -451 -301 -780 -766 -300 -425 -405 -587 -405
-627 0 -34 37 -74 69 -74 39 0 55 16 95 93 19 37 64 112 100 167 l65 100 68
-31 c37 -17 102 -41 143 -54 41 -13 111 -38 155 -58 44 -19 118 -50 165 -69
244 -101 314 -131 405 -173 55 -25 112 -52 127 -60 36 -20 64 -19 88 5 31 31
27 83 -11 114 -17 14 -35 26 -42 26 -6 0 -74 29 -151 64 -78 34 -177 78 -221
96 -170 70 -193 80 -275 115 -47 20 -113 47 -147 59 l-62 22 92 49 c278 148
488 297 643 456 173 179 234 276 234 374 0 91 -30 142 -105 176 -58 27 -172
25 -250 -4z m203 -123 c88 -62 -112 -336 -402 -549 -149 -109 -459 -283 -535
-300 l-34 -7 78 113 c222 325 393 523 551 640 45 33 160 96 204 112 33 12 116
7 138 -9z"/>
<path d="M2033 1545 c-37 -16 -67 -68 -59 -99 4 -11 15 -95 26 -186 10 -91 23
-184 28 -206 l9 -41 -106 -7 c-58 -4 -203 -20 -321 -36 -118 -17 -233 -32
-255 -35 -79 -11 -156 -38 -186 -65 -35 -33 -41 -97 -11 -122 9 -8 105 -43
212 -78 179 -57 1184 -407 1378 -479 46 -17 93 -38 105 -46 33 -23 73 -19 96
11 48 61 14 101 -134 155 -121 45 -828 295 -1105 391 -96 34 -179 65 -184 70
-6 4 14 8 45 8 105 1 551 68 612 92 40 15 59 57 47 99 -6 19 -19 87 -31 153
-11 65 -29 155 -39 199 -11 45 -18 82 -16 84 4 5 519 -174 969 -336 92 -34
177 -61 188 -61 27 0 69 44 69 72 -1 41 -24 55 -160 101 -74 25 -216 74 -315
110 -763 278 -787 285 -862 252z"/>
<path d="M2321 1236 c-51 -28 -66 -105 -31 -160 26 -41 80 -80 350 -250 235
-148 394 -256 387 -262 -2 -2 -62 12 -133 32 -71 20 -172 47 -224 59 -52 13
-156 39 -230 58 -135 35 -401 87 -445 87 -28 0 -65 -43 -65 -74 0 -34 28 -65
63 -70 194 -28 398 -75 779 -180 172 -47 320 -71 382 -62 60 9 106 50 106 93
0 75 -83 141 -560 447 -241 155 -241 157 9 79 276 -85 392 -125 446 -154 65
-35 74 -35 109 -8 31 24 36 77 9 102 -37 32 -143 76 -308 127 -93 28 -210 64
-260 80 -201 64 -335 83 -384 56z"/>
<path d="M3103 220 c-12 -5 -29 -20 -39 -35 -14 -21 -14 -30 -4 -55 37 -91
175 -46 140 45 -7 19 -58 57 -72 54 -2 0 -13 -4 -25 -9z"/>
</g>
</svg>
